  <svg width="802" height="193" viewBox="0 0 802 193" fill="none" xmlns="http://www.w3.org/2000/svg">
            <style>
                #right_team  , #left_team{
                    transform-box: fill-box;
                    transform-origin: center;
                }
                #right_team{
                    animation: RightTranslateX 5s linear infinite;
                }
                #left_team{
                    animation: LeftTranslateX 5s linear infinite;
                }
                @keyframes RightTranslateX {

                    0%,
                    100% {
                        transform: translateX(0px) translateY(0px);
                    }
                
                    50% {
                        transform: translateX(-25px) translateY(-10px)
                    }
                }
                @keyframes LeftTranslateX {

                    0%,
                    100% {
                        transform: translateX(0px);
                    }
                
                    50% {
                        transform: translateX(25px);
                    }
                }
            </style>
            <g id="Group">
                
            <g id="left_team">
                <g id="Group 6">
                <path id="Vector_47" d="M395.197 14.8784L393.814 22.1482L434.387 29.863L435.77 22.5933L395.197 14.8784Z" fill="#BCC0CF"/>
                <path id="Vector_48" d="M428.289 61.7192L429.671 54.4495L389.098 46.7346L387.716 54.0044L428.289 61.7192Z" fill="#BCC0CF"/>
                <path id="Vector_49" d="M415.338 3.37049L404.433 1.2959L391.369 69.9657L402.273 72.0402L415.338 3.37049Z" fill="#DBDFF0"/>
                </g>
                <g id="Group 5">
                <g id="Group 4">
                <g id="Group 3">
                <g id="Group 2">
                <g id="Group 1">
                <g id="Group_22">
                <path id="Vector_50" d="M291.4 63.4942C291.4 63.4942 294.1 62.1942 294.6 61.9942C295 61.7942 296.3 61.9942 297.7 62.3942C299.1 62.7942 300.9 63.8942 301 64.1942C301.1 64.3942 301.3 64.6942 301.1 65.2942C300.9 65.8942 300.3 66.3942 300.3 66.3942C300.3 66.3942 300.4 67.2942 299.8 67.6942C299.8 67.6942 299.8 68.4942 299 68.9942C299 68.9942 299.3 69.8942 298.7 70.1942C298.7 70.1942 297.4 69.9942 296.9 69.9942C296.4 70.0942 293.1 69.0942 290.7 68.0942C290.6 67.9942 289.3 66.5942 291.4 63.4942Z" fill="#EEA886"/>
                </g>
                <g id="Group_23">
                <path id="Vector_51" d="M295.4 64.9944C295.4 64.9944 294.4 66.1944 294 66.2944C293.6 66.4944 295.4 69.3944 295.4 69.3944C295.4 69.3944 296.8 66.2944 295.4 64.9944Z" fill="#CF8C6C"/>
                </g>
                <path id="Vector_52" d="M274.2 172.994C274.2 172.994 276.3 176.794 277.5 177.494C279.1 178.394 282.1 181.494 283.1 181.594C284.2 181.694 287.9 182.394 287.2 184.494C286.6 186.294 277.6 185.994 276.6 185.094C275.6 184.194 272.5 181.094 271.3 181.094C270.1 181.194 270.5 185.594 270.5 185.594H269.2C269.2 185.594 268.7 181.194 268.7 180.494C268.5 178.294 270.1 176.694 270.2 175.394C270.3 174.094 270.3 173.194 270.3 173.194L274.2 172.994Z" fill="#16202E"/>
                <path id="Vector_53" d="M282.9 181.594C282.9 181.594 279.9 182.594 277.6 181.294C275.3 179.994 270.9 177.994 269.4 177.994C269.4 177.994 270.2 175.394 270.3 175.094C270.3 174.794 270.4 173.394 270.4 173.394L274.2 172.794C274.2 172.794 276.7 176.494 277.8 177.294C278.9 178.194 281.7 180.294 282.9 181.594Z" fill="#EEA886"/>
                <path id="Vector_54" d="M237.9 176.494C237.9 176.494 238.3 179.094 238.7 179.794C239.1 180.494 240.2 184.094 240.7 184.794C241.2 185.494 242.3 190.494 240.7 191.094C239.1 191.694 235.3 192.694 234 190.694C232.7 188.694 232.5 186.694 232.8 185.094C233 183.494 234.5 176.394 234.5 175.694C234.5 175.094 237.9 176.494 237.9 176.494Z" fill="#EEA886"/>
                <path id="Vector_55" d="M240.1 183.394C240.1 183.394 240.3 187.294 237.3 187.294C234.3 187.294 233 183.694 233 183.694C233 183.694 232 185.494 233 189.194C234 192.894 238.2 192.194 239.2 191.994C240.1 191.994 244.6 190.794 240.1 183.394Z" fill="#16202E"/>
                <path id="Vector_56" d="M242.8 86.9943C242.8 86.9943 239 91.8943 237.6 95.0943C236.2 98.2943 234 105.394 234.3 110.894C234.6 116.394 236.4 126.694 235.9 128.994C235.4 131.294 234.8 136.094 234.3 137.794C233.7 139.494 231.5 144.294 231.3 149.194C231.1 154.194 232.9 175.994 232.8 177.994C232.6 179.994 239.4 178.794 239.4 178.794C239.4 178.794 239.6 159.194 240.3 155.794C241.1 152.394 242 140.894 242.6 140.094C243.3 139.294 245.2 130.494 245.3 129.094C245.4 127.694 253.5 103.894 253.9 99.7943C254.4 95.6943 264.4 86.8943 264.4 86.8943C264.4 86.8943 254.5 83.1943 242.8 86.9943Z" fill="#0C3454"/>
                <path id="Vector_57" d="M267.8 174.094C266.4 173.894 262.5 151.894 263 147.994C263.5 144.094 263.9 135.694 262.6 132.394C261.8 130.194 256.5 118.894 253 110.894C252.5 109.794 252 108.694 251.6 107.794C250.5 105.194 249.7 103.394 249.7 102.994C249.6 101.494 244.7 75.5944 264.1 87.0944C264.1 87.0944 264.3 89.0944 264.5 89.8944C264.7 90.6944 269.9 109.794 270.4 117.194C270.9 124.594 272.3 130.794 272.5 132.394C272.7 133.994 272.3 139.194 271.8 140.594C271.3 141.994 274.7 172.494 275 173.294C275.4 173.894 269.3 174.294 267.8 174.094Z" fill="#0C3454"/>
                <path id="Vector_58" d="M257.7 48.0943C257.7 48.0943 261.6 46.7943 263.9 48.9943C266.1 51.1943 267.9 54.0943 268.5 55.2943C269.1 56.4943 275.2 64.7943 275.6 64.9943C276 65.1943 281.1 64.1943 284.2 63.6943C288.5 63.0943 292.5 62.7943 292.5 62.7943L293.1 68.5943C293.1 68.5943 273.7 72.2943 272 70.9943C268.3 67.9943 259.1 56.7943 259.1 56.7943C259.1 56.7943 251.4 52.5943 257.7 48.0943Z" fill="#1D5E94"/>
                <path id="Vector_59" d="M256.6 45.9944C256.6 45.9944 260.3 47.6944 261.5 47.9944C262.8 48.2944 267.7 54.6944 268.6 56.9944C269.5 59.2944 268.6 62.8944 266.8 66.9944C265 71.0944 266.7 72.4944 265.9 76.5944C265.1 80.6944 264.4 89.4944 264.5 91.7944C264.7 94.0944 243.9 94.4944 239.2 90.3944C239.2 90.3944 244 83.2944 244.6 82.1944C245.2 81.1944 244.7 75.5944 244.1 74.1944C243.5 72.7944 237.7 61.2944 237.7 61.2944C237.7 61.2944 236.8 51.4944 239.6 49.3944C242 47.4944 248.5 46.6944 249.7 46.2944C250.8 45.7944 254.2 45.6944 256.6 45.9944Z" fill="#EDDAD3"/>
                <path id="Vector_60" d="M257.8 54.1943L260 51.5943L258.1 44.6943C258.1 44.6943 257.4 48.4943 257.8 54.1943Z" fill="#D6C5BE"/>
                <path id="Vector_61" d="M258.3 41.7945C258.3 41.7945 257.6 48.4945 257.7 50.6945C257.7 50.6945 253.9 54.4945 249.6 46.1945C249.6 46.1945 251.4 42.7944 250 38.0944C248.7 33.4944 258.3 41.7945 258.3 41.7945Z" fill="#EEA886"/>
                <path id="Vector_62" d="M257.8 50.6943V54.1943L253.4 50.8943L257.8 50.6943Z" fill="#EEA886"/>
                <path id="Vector_63" d="M257.8 54.1944L255.9 51.8944L249.8 45.7944L247.8 47.6944L257.8 54.1944Z" fill="#D6C5BE"/>
                <path id="Vector_64" d="M250.7 95.0943C249 103.394 236.5 94.1943 236.5 94.1943C236.5 94.1943 244.6 80.5943 241.4 69.6943C241.4 69.5943 241.3 69.4943 241.3 69.3943C241.1 68.6943 240.9 68.0943 240.7 67.3943C237.7 58.3943 235.6 55.9943 235.6 55.9943C235.6 55.9943 238.8 47.9943 242.3 47.4943C245.8 46.9943 249 46.3943 249 46.3943C249 46.3943 254.1 54.1943 254.4 57.5943C254.6 61.0943 252.4 86.7943 250.7 95.0943Z" fill="#1D5E94"/>
                <path id="Vector_65" d="M269.1 58.5943C269.1 58.5943 269.5 63.2943 266.2 69.5943C266.2 69.5943 266.3 77.8943 266.4 80.7943C266.5 83.6943 267.2 94.6943 267.2 94.6943L263.6 96.7943C262.9 97.1943 262 96.5943 262.1 95.7943C263.1 87.3943 266.4 55.7943 259.3 47.1943L262.2 47.9943C262.2 48.0943 269.1 55.2943 269.1 58.5943Z" fill="#1D5E94"/>
                <path id="Vector_66" d="M260 51.5943L262.8 52.3943L258.1 44.6943L260 51.5943Z" fill="#FAE6DE"/>
                <path id="Vector_67" d="M255.9 51.8944L253.4 55.2944L248.1 46.5944L249.8 45.7944L255.9 51.8944Z" fill="#FAE6DE"/>
                <path id="Vector_68" d="M255.7 20.0945C258.4 19.7945 264.4 20.8945 265.7 27.9945C265.7 27.9945 265.6 29.8945 265.2 31.4945C264.8 32.9945 266.4 37.3945 266 37.6945C265.7 37.8945 264.2 38.2945 264.2 38.2945C264.2 38.2945 262.9 43.1945 261.2 43.2945C259.5 43.2945 253 42.2945 249.6 36.3945C246.2 30.3945 244.8 21.0945 255.7 20.0945Z" fill="#EEA886"/>
                <path id="Vector_69" d="M265.7 27.9943C265.7 27.9943 261.5 31.1943 257.2 31.9943C252.9 32.7943 250.6 40.2943 250.6 40.2943C250.6 40.2943 243.4 29.3943 248.4 22.4943C253.3 15.4943 266.2 19.5943 265.7 27.9943Z" fill="#D88A51"/>
                <path id="Vector_70" d="M255.3 31.7942C255.2 30.9942 254.2 29.6942 252.9 30.9942C251.6 32.1942 253.6 36.0942 254.7 35.6942C255.9 35.1942 255.4 32.6942 255.3 31.7942Z" fill="#EEA886"/>
                <path id="Vector_71" d="M258.3 42.7943C258.2 43.2943 258.1 43.8943 258 44.5943C254.4 42.4943 252.5 39.8943 252.5 39.8943C254.7 41.5943 258.3 42.7943 258.3 42.7943Z" fill="#A77860"/>
                <path id="Vector_72" d="M243.8 58.8943C243.6 63.7943 241.3 69.3943 241.3 69.3943C241.1 68.6943 240.9 68.0943 240.7 67.3943C242 63.7943 243.8 58.8943 243.8 58.8943Z" fill="#912B2B"/>
                <path id="Vector_73" d="M249.484 37.5819C251.81 36.5599 252.633 33.3131 251.322 30.3299C250.011 27.3468 247.063 25.757 244.737 26.7791C242.411 27.8011 241.588 31.0479 242.899 34.0311C244.21 37.0142 247.158 38.604 249.484 37.5819Z" fill="#D88A51"/>
                <path id="Vector_74" d="M265.7 85.7943L263.5 85.6943L263.3 89.7943C263.3 89.7943 265.1 88.3943 265.7 85.7943Z" fill="#EEA886"/>
                <g id="Group_24">
                <g id="Group_25">
                <g id="Group_26">
                <g id="Group_27">
                <g id="Group_28">
                <path id="Vector_75" d="M56.7001 32.8943C57.4001 34.5943 58.3001 36.2943 59.3001 37.6943C62.8001 42.5943 71.3001 43.0943 72.0001 30.0943C72.1001 27.5943 71.9001 25.5943 71.5001 23.9943C70.0001 18.1943 65.9001 16.9943 65.9001 16.9943C62.9001 16.6943 57.5001 17.1943 55.5001 21.0943C54.3001 23.9943 55.0001 28.6943 56.7001 32.8943Z" fill="#EEA987"/>
                </g>
                </g>
                </g>
                </g>
                </g>
                </g>
                <g id="Group_29">
                <g id="Group_30">
                <g id="Group_31">
                <g id="Group_32">
                <g id="Group_33">
                <path id="Vector_76" d="M56.7 32.8943C56.7 32.8943 57.1 32.9943 58.9 29.8943C59.2 29.2943 59.5 29.6943 59.6 29.4943L62.2 28.5943C62.2 28.5943 60 25.0943 63.3 24.0943C66.7 23.0943 71.6 24.0943 71.6 24.0943C74.7 12.8943 65.5 16.4943 65.5 16.4943C62.3 16.9943 57.6 17.3943 55.7 21.1943C54.3 23.9943 55 28.6943 56.7 32.8943Z" fill="#665249"/>
                </g>
                </g>
                </g>
                </g>
                </g>
                <g id="Group_34">
                <g id="Group_35">
                <g id="Group_36">
                <g id="Group_37">
                <g id="Group_38">
                <path id="Vector_77" d="M60.2 27.5944C60.1 26.6944 58.4 25.8944 57.6 27.6944C56.8 29.4944 59.1 31.5944 59.8 31.1944C60.4 30.8944 60.5 28.9944 60.2 27.5944Z" fill="#EEA987"/>
                </g>
                </g>
                </g>
                </g>
                </g>
                <g id="Group_39">
                <path id="Vector_78" d="M21.6 72.4944C21.6 72.4944 18.7 71.2944 18.3 71.0944C17.9 70.8944 16.6 71.1944 15.1 71.6944C13.6 72.1944 11.9 73.4944 11.8 73.6944C11.7 73.9944 11.5 74.1944 11.8 74.7944C12 75.3944 12.7 75.7944 12.7 75.7944C12.7 75.7944 12.6 76.6944 13.3 77.1944C13.3 77.1944 13.2 77.9944 14.1 78.3944C14.1 78.3944 14 79.2944 14.7 79.5944C14.7 79.5944 16 79.2944 16.5 79.2944C17 79.2944 20.3 78.0944 22.7 76.9944C22.7 76.9944 24 75.4944 21.6 72.4944Z" fill="#EEA886"/>
                </g>
                <g id="Group_40">
                <path id="Vector_79" d="M17.6 74.2944C17.6 74.2944 18.7 75.3944 19.2 75.5944C19.7 75.7944 18 78.8944 18 78.8944C18 78.8944 16.3 75.6944 17.6 74.2944Z" fill="#CF8C6C"/>
                </g>
                <g id="Group_41">
                <g id="Group_42">
                <path id="Vector_80" d="M22.5 78.7943C22.5 78.7943 37.8 77.2943 41.2 75.9943C42.7 75.3943 43.6999 73.3943 45.2999 70.4943C45.7999 69.5943 46.3999 68.5943 46.7999 67.5943C48.6999 63.6943 50.2 60.0943 50.2 60.0943C50.2 60.0943 56.2 50.5943 49.9 47.6943C49.9 47.6943 47.4 47.7943 46.2 48.9943C45.1 50.0943 42.5999 56.8943 42.0999 57.9943C41.4999 59.1943 38.6 69.1943 38.2 69.4943C37.9 69.7943 34 70.4943 31.5 71.1943C28 72.0943 21.2 72.1943 21.2 72.1943L22.5 78.7943Z" fill="#5E5F70"/>
                </g>
                </g>
                <g id="Group_43">
                <path id="Vector_81" d="M90.4 181.894C90.4 181.894 91.4 184.094 92.2 184.994C93 185.894 96.1 187.394 96.2 190.094C96.3 192.994 91.1 192.294 89.1 192.294C87.1 192.194 86.9 190.694 86 189.094C85.1 187.494 84.3 187.794 84.1 186.494C83.9 185.194 84.6 182.194 84.6 182.194L90.4 181.894Z" fill="#202026"/>
                </g>
                <g id="Group_44">
                <g id="Group_45">
                <path id="Vector_82" d="M50.2001 183.494C50.2001 183.494 47.5 186.494 44.6 187.194C41.8 187.894 39.8 188.694 39.8 190.394C39.8 192.094 48.1 192.994 51.3 191.194C56.1 188.494 56.6 189.294 57.1 187.994C57.6 186.694 56.3001 183.394 56.4001 182.894C56.4001 182.494 50.2001 183.494 50.2001 183.494Z" fill="#202026"/>
                </g>
                </g>
                <g id="Group_46">
                <g id="Group_47">
                <path id="Vector_83" d="M48.1999 98.5943C48.1999 98.5943 45.7999 120.094 44.7999 127.294C43.5999 135.794 43.2999 142.794 43.0999 147.194C42.7999 152.694 48.6999 182.194 48.3999 183.794C48.0999 185.394 57.6999 182.894 57.6999 182.894C57.6999 182.894 53.6999 147.794 54.9999 141.894C56.1999 136.394 60.4999 112.294 61.7999 113.794C63.0999 115.294 71.5999 141.394 72.6999 145.594C73.6999 149.694 83.4999 183.194 83.4999 183.194C83.4999 183.194 90.1999 184.494 91.8999 183.094C91.8999 183.094 85.2999 152.294 84.4999 144.294C84.1999 141.194 81.4999 107.694 75.8999 94.2943C72.8999 86.9943 48.1999 98.5943 48.1999 98.5943Z" fill="#3D3D47"/>
                </g>
                </g>
                <g id="Group_48">
                <g id="Group_49">
                <path id="Vector_84" d="M69.7 92.3943C69.7 92.3943 66.6 91.3943 65 91.1943C63.5 90.9943 80.5001 79.0943 80.4001 75.1943C80.3001 71.9943 78.3001 63.6943 78.3001 63.6943C78.1001 64.2943 76 73.0943 76.1 77.1943C76.1 81.4943 77.2 98.0943 77.2 98.0943L70.8001 98.8943L52.3 99.7943L48.4001 99.3943C48.4001 99.3943 48.7 92.2943 48.8 88.8943C48.8 86.7943 49.2 82.8943 49 79.1943C49 79.1943 49 75.2943 48.5 73.5943C48.3 66.0943 47.6 58.6943 47.6 58.6943C47.3 55.2943 47 52.1943 46.8 49.1943C47.6 48.6943 48.6001 48.1943 49.4001 47.7943C51.8001 46.5943 55.1 44.8943 57.3 43.8943C58.6 43.2943 59.8 42.7943 59.8 42.7943C59.8 42.7943 68.5 41.6943 69.2 41.7943C69.4 41.7943 70.5 42.1943 72 42.6943C75.1 43.7943 81.1 45.9943 82.1 46.6943C83.5 47.6943 87.1001 71.1943 87.3001 72.7943C87.3001 75.8943 69.7 92.3943 69.7 92.3943Z" fill="#FFA15B"/>
                </g>
                </g>
                <g id="Group_50">
                <path id="Vector_85" d="M48.8 96.5944C48.8 96.5944 61.5 97.2944 72.7 95.9944L72.8 99.6944C72.8 99.6944 56.1 102.594 48.4 99.6944L48.8 96.5944Z" fill="#25252B"/>
                </g>
                <g id="Group_51">
                <g id="Group_52">
                <path id="Vector_86" d="M49 47.4944C48 47.7944 46.6 48.6944 45.9 49.3944C46.1 52.3944 46.8 55.5944 47.2 58.9944C47.2 58.9944 47.7 67.3944 48.4 75.3944C48.6 76.4944 48.7 77.6944 48.6 78.8944C48.5 80.4944 48.4 82.1944 48.2 83.9944C48.2 83.9944 48.2 83.9944 48.2 84.0944C48.2 84.4944 48.1 84.8944 48.1 85.3944C47.3 94.2944 45.7 104.594 44.8 107.694C44.6 108.394 45.3 108.894 45.8 109.394L49.3 111.494C49.3 111.494 50.4 98.2944 50.7 93.7944C51 89.4944 52.3 83.5944 52.8 77.9944C53.4 70.7944 54.3 63.7944 54.8 59.5944C56.1 48.6944 58 43.7944 58 43.7944C55.8 44.6944 49 47.4944 49 47.4944Z" fill="#5E5F70"/>
                </g>
                </g>
                </g>
                <g id="Group_53">
                <path id="Vector_87" d="M59 46.0942C59 46.0942 58.9 49.3942 61.7 49.3942C64.5 49.3942 66.7 46.5942 66.7 46.5942L62.1 47.8942L59.2 45.5942L59 46.0942Z" fill="#CAC7D1"/>
                </g>
                <g id="Group_54">
                <g id="Group_55">
                <path id="Vector_88" d="M68.4 43.3943C65 46.7943 59.6 44.0943 59.7 43.0943C59.9 42.1943 59.7 37.9943 59.7 37.9943C59.7 37.9943 67.9 35.5943 67.7 37.1943C67.6 37.7943 67.7 38.8943 67.9 39.9943C67.9 40.1943 67.9 40.3943 68 40.5943C68.1 42.0943 68.4 43.3943 68.4 43.3943Z" fill="#EEA987"/>
                </g>
                </g>
                <g id="Group_56">
                <path id="Vector_89" d="M59.5 46.2944L62 47.9944C62 47.9944 59.9 43.7944 59.8 41.9944L59.5 46.2944Z" fill="#A09EA6"/>
                </g>
                <g id="Group_57">
                <path id="Vector_90" d="M59.8 42.0942L58.2 43.6942L56.6 48.7943L59.5 46.2943L59.8 42.0942Z" fill="#EAE6F2"/>
                </g>
                <g id="Group_58">
                <path id="Vector_91" d="M60.1 43.5942C60.1 43.5942 60.8 45.8942 62 47.9942C62 47.9942 64.5 45.6942 65.2 44.8942C66 44.0942 60.1 43.5942 60.1 43.5942Z" fill="#EEA987"/>
                </g>
                <g id="Group_59">
                <path id="Vector_92" d="M64.6 45.4944L62 47.9944C62 47.9944 65.1 47.6944 65.7 47.1944L64.6 45.4944Z" fill="#A09EA6"/>
                </g>
                <g id="Group_60">
                <path id="Vector_93" d="M67.9 40.7944C67.9 40.7944 65.9 44.2944 64.5 45.4944L66.9 49.2944L70.5 42.3944L67.9 40.7944Z" fill="#EAE6F2"/>
                </g>
                </g>
                <g id="Group_61">
                <g id="Group_62">
                <path id="Vector_94" d="M78.3 89.7943C78.1 88.8943 77.9 87.9943 77.7 87.1943C82.9 81.5943 88.1 75.4943 88 74.2943C87.8 72.6943 84.5 47.9943 83.1 46.9943C82.3 46.3943 76.3 44.4943 73.3 43.3943C72.8 43.1943 71.1 42.4943 70.6 42.3943C70 43.0943 65 55.8943 64.7 65.6943C64.6 68.6943 65.5 74.9943 66.2 80.1943C66.5 82.3943 66.8 84.3943 67.1 86.2943C63.9 89.4943 61.5 91.9943 61.8 92.4943C62.3 93.2943 68.1 97.2943 68.1 97.2943C68.1 97.2943 68.3 97.0943 68.6 96.7943C69.6 104.794 70.3 110.794 70.3 110.794L79.2 106.494C80.6 105.694 82.6 102.694 82 101.094C80.7 98.1943 79.4 93.8943 78.3 89.7943ZM78 64.9943C78 64.9943 78.5 67.3943 79 71.9943C79.1 72.7943 78.3 74.1943 76.9 75.7943C77.2 71.8943 77.6 66.6943 78 64.9943Z" fill="#5E5F70"/>
                </g>
                </g>
                <g id="Group_63">
                <path id="Vector_95" d="M57.9947 101.022L63.9923 100.862L63.8721 96.3639L57.8745 96.5241L57.9947 101.022Z" fill="#3A4066"/>
                </g>
                <path id="Vector_96" d="M78.3 89.7943L70.2 95.0943L70 95.1943L77.6 87.1943C77.9 87.9943 78.1 88.8943 78.3 89.7943Z" fill="#3B3D47"/>
                <path id="Vector_97" d="M67.9 40.6944C64.5 43.0944 61.4 39.4944 61.2 39.2944C64.9 41.6944 67.8 40.0944 67.8 40.0944C67.9 40.2944 67.9 40.4944 67.9 40.6944Z" fill="#A77860"/>
                </g>
                <g id="Group_64">
                <path id="Vector_98" d="M370 29.9944L369.1 30.9944L368.2 31.9944C368.2 31.9944 363.4 27.8944 356 25.8944C346.1 23.1944 336.5 25.2944 327.4 32.0944C319.6 37.8944 312.7 46.2944 304.7 56.0944C289.8 74.3944 271.2 97.1944 236.3 114.094C235 114.994 223.7 122.894 203.7 127.694C195.4 129.694 185 131.294 172.6 131.294C156.3 131.294 136.7 128.494 114.5 120.294C73.8 105.194 35.3 87.2944 0 66.8944V63.7944C35.5 84.3944 74.3 102.594 115.4 117.894C153.6 132.094 184.1 129.794 202.8 125.294C223.2 120.394 234.6 112.094 234.7 111.994L234.9 111.894C269.4 95.1944 287.8 72.5944 302.5 54.4944C310.6 44.5944 317.6 35.9944 325.7 29.9944C338 20.8944 349.3 21.3944 356.7 23.3944C364.8 25.5944 369.8 29.8944 370 29.9944Z" fill="#BCC0CF"/>
                </g>
                <path id="Vector_99" d="M374.1 64.0943L395.7 68.1943L407.8 4.4943L386.2 0.39429C374 -1.90571 362.3 6.09429 360 18.1943L356.3 37.7943C353.9 50.0943 361.9 61.7943 374.1 64.0943Z" fill="#DBDFF0"/>
                <path id="Vector_100" d="M354.415 35.732L360.113 36.8154L363.232 20.4094L357.534 19.3259L354.415 35.732Z" fill="#DBDFF0"/>
                <g id="Group_65">
                <path id="Vector_101" d="M268.8 94.5942C268.8 94.5942 268.1 94.4942 267.8 94.2942C267.8 94.2942 267.3 93.8942 267 93.5942C266.9 93.4942 266.8 93.3942 266.7 93.3942C266.4 93.1942 265.7 92.8942 265.1 92.2942C264.5 91.6942 262.6 89.3942 262.6 89.3942L264.3 87.3942L265.6 85.7942C265.6 85.7942 270.2 86.5942 270.8 87.0942C270.9 87.0942 270.9 87.1942 271 87.2942C271.5 87.7942 271.6 88.2942 271.9 88.5942C272 88.6942 272.7 89.7942 272.6 90.0942C272.5 90.5942 272.1 90.8942 271.8 90.9942C271.8 90.9942 271.5 91.9942 270.9 92.3942C270.9 92.3942 270.6 93.2942 269.7 93.5942C269.8 93.5942 269.4 94.5942 268.8 94.5942Z" fill="#EEA886"/>
                </g>
                <path id="Vector_102" d="M241.1 47.9944C241.1 47.9944 235.6 51.3944 235.2 57.0944C234.7 62.7944 235.6 64.7944 236.2 67.1944C236.8 69.4944 237.4 75.8944 237.5 76.5944C237.6 77.2944 238 85.9944 240.5 87.8944C243 89.7944 263.1 90.7944 263.2 91.3944C263.3 91.9944 264.4 84.9944 264.4 84.9944C264.4 84.9944 253.8 84.1944 252.4 83.5944C250.1 82.5944 246 82.1944 245.8 79.8944C245.6 77.0944 244.6 67.8944 244.7 66.4944C244.9 65.0944 245.4 47.9944 241.1 47.9944Z" fill="#1D5E94"/>
                <g id="Group_66">
                <path id="Vector_103" d="M300.6 63.9943C300.6 63.9943 296.9 63.0943 296.7 63.6943C296.5 64.2943 296.8 64.5943 296.8 64.5943L295.1 64.8943C295.1 64.8943 294.1 65.6943 295.3 66.5943C295.3 66.5943 294.3 67.2943 295.6 67.9943C295.6 67.9943 295.1 68.7943 295.7 69.1943C296.2 69.5943 298.6 70.0943 298.6 70.0943C298.6 70.0943 299.1 69.9943 299.2 68.9943C299.2 68.9943 300 68.5943 299.9 67.6943C299.9 67.6943 300.5 67.2943 300.4 66.2943C300.4 66.2943 301.7 65.2943 301 64.0943C301 64.0943 300.8 64.0943 300.6 63.9943Z" fill="#DB9C7C"/>
                </g>
                <g id="Group_67">
                <path id="Vector_104" d="M294.7 61.9944C294.7 61.9944 296.7 63.6944 297.4 65.0944C297.6 65.3944 297.6 65.6944 297.4 65.9944C297.2 66.2944 296.5 66.2944 295.6 65.5944C294.7 64.8944 293.2 64.3944 293.2 64.3944C293.2 64.3944 292.4 63.3944 294.7 61.9944Z" fill="#EEA886"/>
                </g>
                <g id="Group_68">
                <path id="Vector_105" d="M62.9 103.494C62.9 103.494 63.6 103.094 63.8 102.694C63.8 102.694 64.1 102.094 64.4 101.594C64.5 101.494 64.6 101.294 64.6 101.294C64.8 100.994 65.5 100.394 65.8 99.4943C66.2 98.5943 67.2 95.3943 67.2 95.3943L64.6 93.9943L62.8 92.1943C62.8 92.1943 58.1 95.4943 57.6 96.2943C57.6 96.3943 57.5 96.4943 57.5 96.4943C57.2 97.1943 57.2 97.7943 57.1 98.1943C57.1 98.2943 56.7 99.7943 57 100.094C57.4 100.594 57.8 100.794 58.2 100.794C58.2 100.794 59 101.694 59.8 101.894C59.8 101.894 60.5 102.794 61.5 102.694C61.5 102.894 62.2 103.694 62.9 103.494Z" fill="#EFAA88"/>
                </g>
                <path id="Vector_106" d="M68 97.3942C68 97.3942 63.6 94.4942 61.4 92.2942L71 82.2942L78.2 86.4942L68 97.3942Z" fill="#5E5F70"/>
                <g id="Group_69">
                <path id="Vector_107" d="M12.2 73.5944C12.2 73.5944 15.9 72.4944 16.2 73.0944C16.5 73.6944 16.2 73.9944 16.2 73.9944L17.9 74.1944C17.9 74.1944 19 74.9944 17.8 75.8944C17.8 75.8944 18.9 76.5944 17.6 77.2944C17.6 77.2944 18.1 77.9944 17.6 78.4944C17.1 78.9944 14.6 79.5944 14.6 79.5944C14.6 79.5944 14 79.4944 14 78.4944C14 78.4944 13.1 78.1944 13.2 77.1944C13.2 77.1944 12.5 76.7944 12.6 75.7944C12.6 75.7944 11.2 74.8944 11.9 73.5944C11.8 73.7944 12 73.6944 12.2 73.5944Z" fill="#DB9C7C"/>
                </g>
                <g id="Group_70">
                <path id="Vector_108" d="M18.1999 71.0942C18.1999 71.0942 16.2999 72.9942 15.6999 74.3942C15.5999 74.6942 15.4999 75.0943 15.6999 75.2943C15.9999 75.5943 16.6999 75.4942 17.4999 74.6942C18.3999 73.8942 19.8999 73.3942 19.8999 73.3942C19.8999 73.3942 20.4999 72.3942 18.1999 71.0942Z" fill="#EEA886"/>
                </g>
                </g>
                </g>
            <g id="right_team">
            <g id="Group_2">
            <path id="Vector" d="M702.4 99.2943C702.4 99.2943 699.2 99.0942 698.7 99.0942C698.2 99.0942 697 99.7943 695.7 100.794C694.4 101.794 693.1 103.594 693.1 103.894C693.1 104.194 693 104.494 693.4 104.994C693.8 105.594 694.6 105.694 694.6 105.694C694.6 105.694 694.8 106.494 695.6 106.694C695.6 106.694 695.8 107.594 696.8 107.694C696.8 107.694 697.1 108.694 697.8 108.694C697.8 108.694 699 107.994 699.5 107.794C700 107.694 702.2 105.694 704.2 103.794C704.3 103.794 706.8 101.894 702.4 99.2943Z" fill="#EEA987"/>
            </g>
            <g id="Group_3">
            <path id="Vector_2" d="M765.8 178.994C765.8 178.994 764.8 179.394 763.3 180.194C761.8 180.994 760.1 181.894 757.9 181.994C755.8 182.094 753.5 182.894 753.7 184.994C753.9 186.994 760.7 187.694 767.1 186.594C773.5 185.494 773.6 185.294 773.7 184.794C773.7 184.294 773.3 179.194 773 178.994C772.7 178.894 765.8 178.994 765.8 178.994Z" fill="#1B1D2E"/>
            </g>
            <g id="Group_4">
            <path id="Vector_3" d="M765.3 176.694C765.3 176.694 765.8 178.994 765.8 179.294C765.8 179.594 773.5 180.894 773.1 179.294C772.7 177.594 770.3 174.294 770.3 174.294L765.3 176.694Z" fill="#1F2136"/>
            </g>
            <g id="Group_5">
            <path id="Vector_4" d="M737.5 123.594C738.1 117.294 759.1 103.594 760.1 109.594C761.1 115.594 752.5 129.294 751.9 133.794C751.4 138.294 751.8 139.494 755.2 143.294C758.6 147.194 772.9 175.694 772.9 175.694C772.5 177.894 765 178.594 764.8 178.094C764.6 177.594 744.4 150.894 743.3 149.894C742.2 148.894 738.2 144.294 737.6 142.094C737.2 140.694 736.5 134.494 737 130.094C737 130.094 737.4 124.094 737.5 123.594Z" fill="#282B45"/>
            </g>
            <g id="Group_6">
            <path id="Vector_5" d="M725.1 178.794C725.1 178.794 723.7 178.994 722.2 179.894C720.7 180.694 718.6 182.094 716.4 182.194C714.2 182.294 711.7 183.194 711.9 185.294C712.1 187.394 719.3 187.994 725.8 186.794C732.4 185.694 732.5 185.494 732.5 184.994C732.5 184.494 732.3 180.594 731.9 179.594C731.7 179.194 725.1 178.794 725.1 178.794Z" fill="#1B1D2E"/>
            </g>
            <path id="Vector_6" d="M734.5 67.0944C734.5 67.0944 725.4 80.6944 720.2 85.6944C718.6 87.2944 702.3 98.2944 701.7 98.8944C701.1 99.4944 703.3 104.994 703.3 104.994C703.3 104.994 724.1 92.9944 725.3 92.1944C726.5 91.3944 741.6 74.1944 742.3 71.7944C743 69.3944 742.8 66.5944 740.3 65.4944C737 63.8944 734.5 67.0944 734.5 67.0944Z" fill="#292C47"/>
            <g id="Group_7">
            <path id="Vector_7" d="M722.9 177.094C722.9 177.094 723.5 178.994 723.3 179.294C723.1 179.594 732 180.294 731.8 179.594C731.7 179.194 730.4 176.494 729.8 175.094C729.3 173.794 722.9 177.094 722.9 177.094Z" fill="#1F2136"/>
            </g>
            <g id="Group_8">
            <path id="Vector_8" d="M731.4 106.894C731.4 106.894 707.1 125.294 704.4 129.094C701.7 132.894 704.7 138.494 705.1 140.294C705.5 142.094 722.5 174.794 722.7 177.994C722.7 177.994 730.1 178.994 732.1 176.594C732.1 176.594 721.3 145.094 719.6 139.194C717.9 133.294 725.6 132.394 730.4 130.194C735.2 127.994 756.2 115.694 757.4 111.094C758.5 106.894 757.4 103.694 757.4 103.694C757.4 103.694 751.5 99.8942 731.4 106.894Z" fill="#282B45"/>
            </g>
            <g id="Group_9">
            <path id="Vector_9" d="M729.4 61.7943C729.4 61.7943 727.6 69.7943 728 74.2943C728.4 78.6943 733 89.9943 733.3 92.4943C733.6 94.9943 731.3 107.094 731.3 107.094L758.6 111.194C758.6 111.194 758.6 104.094 757.6 95.6943C756.6 87.2943 753.4 80.6943 752.3 75.8943C748.5 59.6943 734.7 57.3943 734.7 57.3943L729.4 61.7943Z" fill="#CFBEB6"/>
            </g>
            <g id="Group_10">
            <path id="Vector_10" d="M716.2 43.7943C716.2 43.7943 714.4 48.0943 715.6 48.5943C716.6 48.9943 715 53.1943 714.8 53.8943C714.6 54.5943 716.6 54.8943 717 55.1943C717.4 55.5943 719.2 60.5943 720.8 60.5943C722.4 60.5943 729.1 57.3943 730.8 55.1943C732.5 52.9943 733.1 43.8943 731.5 40.1943C729.8 36.6943 719.3 36.1943 716.2 43.7943Z" fill="#EEA886"/>
            </g>
            <g id="Group_11">
            <path id="Vector_11" d="M725.3 59.0944C725.3 59.0944 725.5 59.4944 725.9 60.0944C726 60.3944 726.2 60.6944 726.4 60.9944C726.5 61.1944 726.7 61.4944 726.8 61.7944C727.7 63.4944 728.7 65.5944 729 66.5944C729.4 68.5944 733.9 57.4944 733.9 57.4944C733.9 57.4944 730.7 51.7944 728.1 44.9944C725.5 38.1944 725.3 59.0944 725.3 59.0944Z" fill="#EEA886"/>
            </g>
            <g id="Group_12">
            <path id="Vector_12" d="M715.8 44.6943C715.8 44.6943 713.1 40.4943 716.8 36.7943C720.5 33.0943 728.7 37.9943 729.5 38.1943C730.4 38.2943 735.1 38.0943 733.7 46.8943C732.4 54.4943 732 54.1943 732 54.1943C732 54.1943 730.1 50.5943 729.1 50.0943C727.6 49.1943 724.6 49.7943 724.6 49.7943C724.6 49.7943 725.6 45.7943 723.3 45.4943C721.2 45.1943 718 43.5943 715.8 44.6943Z" fill="#754836"/>
            </g>
            <g id="Group_13">
            <path id="Vector_13" d="M726.9 47.3942C727 46.8942 727.4 44.4942 729.5 45.6942C731.6 46.7942 728.9 51.3942 728.5 51.4942C728.3 51.4942 725.7 51.9942 726.9 47.3942Z" fill="#EEA886"/>
            </g>
            <g id="Group_14">
            <path id="Vector_14" d="M733.4 56.5942C733.4 56.5942 730.6 63.1942 728.2 65.3942L729.3 69.2943L734.8 57.2943L733.4 56.5942Z" fill="#EDDAD3"/>
            </g>
            <path id="Vector_15" d="M731.4 106.894L731.9 104.394L758.7 108.294V111.094L731.4 106.894Z" fill="#3D4169"/>
            <g id="Group_15">
            <path id="Vector_16" d="M730.1 77.1942C730.8 78.5942 731.4 80.0942 732.1 81.4942C733.5 84.6942 734.7 87.8942 735.8 91.0942C736.2 92.1942 736.6 93.2942 736.9 94.4942C741.1 107.694 749.3 116.794 749.3 116.794C749.3 116.794 760 114.794 762.3 112.694C762.3 112.694 760 97.2942 754.9 82.6942C754.5 81.5942 754.1 80.4942 753.7 79.2942C749.3 67.5942 743 57.2942 734.7 57.2942C734.7 57.4942 726.5 69.7942 730.1 77.1942Z" fill="#323657"/>
            </g>
            <path id="Vector_17" d="M755.4 83.6943C755.4 83.6943 758.9 98.9943 767.8 110.994C769 112.594 756.1 115.194 756.1 115.194L755.4 83.6943Z" fill="#323657"/>
            <path id="Vector_18" d="M743.2 71.8943C746.8 75.0943 755 82.6943 755 82.6943C754.6 81.5943 754.2 80.4943 753.8 79.2943C750.9 76.9943 743.3 71.8943 743.2 71.8943Z" fill="#1D2133"/>
            <path id="Vector_19" d="M725.3 59.0943C725.3 59.0943 725.5 59.4943 725.9 60.0943C726 60.3943 726.2 60.6943 726.4 60.9943C729.8 57.7943 730.5 55.6943 730.5 55.6943C728.9 57.0943 725.3 59.0943 725.3 59.0943Z" fill="#A77860"/>
            <path id="Vector_20" d="M728.2 65.5942C728.2 65.5942 727.8 68.2943 728.1 69.2943C728.2 69.6943 729.2 69.0942 729.2 69.0942L728.2 65.5942Z" fill="#548AD1"/>
            <g id="Group_16">
            <path id="Vector_21" d="M801.4 88.8943V92.1943C789.7 100.794 776 110.094 761.1 115.494C752.7 118.494 744.7 120.094 737.1 120.094C725.4 120.094 714.5 116.494 704.2 109.194C679.4 91.6943 639.6 102.794 639.2 102.894H639.1C635.1 103.594 631.1 103.894 627.1 103.894C594.4 103.894 560.2 82.6943 538.9 69.4943C531.4 64.8943 525.5 61.1943 521.6 59.5943C504.8 52.6943 487.7 55.3943 487.5 55.3943L487.1 52.6943C487.8 52.5943 505.2 49.7943 522.7 56.9943C526.8 58.6943 532.8 62.3943 540.4 67.0943C564 81.7943 603.5 106.294 638.7 100.094C639.7 99.7943 649.5 97.0943 662.4 96.4943C674.8 95.8943 692.4 97.1943 705.9 106.794C740.2 131.294 776.1 107.694 801.4 88.8943Z" fill="#BCC0CF"/>
            </g>
            <path id="Vector_22" d="M478.3 19.5944L456.7 15.4944L444.6 79.1944L466.2 83.2944C478.4 85.5944 490.1 77.5944 492.4 65.4944L496.1 45.8944C498.4 33.5944 490.4 21.8944 478.3 19.5944Z" fill="#DBDFF0"/>
            <path id="Vector_23" d="M489.812 63.3174L495.51 64.4009L498.63 47.9948L492.932 46.9114L489.812 63.3174Z" fill="#DBDFF0"/>
            <path id="Vector_24" d="M630 71.9944C629.8 74.9944 630.3 80.5944 628.2 80.7944C627.5 80.8944 625.9 80.5944 623.8 80.0944C623.7 80.0944 623.6 80.0944 623.5 79.9944C623 79.8944 622.6 79.7944 622.1 79.6944C622 79.6944 621.9 79.6944 621.8 79.5944C614.2 77.7944 602.9 74.4944 602.9 74.4944L607.2 69.3944C607.2 69.3944 618.8 72.4944 623.4 73.2944C623.5 73.2944 623.5 73.2944 623.6 73.2944C623.6 73.0944 623.5 72.9944 623.5 72.7944C623.4 72.3944 623.4 72.0944 623.3 71.6944C622.5 67.6944 621.6 64.1944 621.6 64.1944C621.6 64.1944 615.1 48.1944 623 49.3944C623 49.3944 627.1 51.5944 628 56.7944C628.8 61.9944 630.2 68.9944 630 71.9944Z" fill="#DBDFF0"/>
            <path id="Vector_25" d="M623.8 80.1943C623.7 80.1943 623.6 80.1943 623.5 80.0943C623 79.9943 622.6 79.8943 622.1 79.7943L625.7 62.6943C626.5 70.0943 623.8 80.1943 623.8 80.1943Z" fill="#B3B7C4"/>
            <g id="Group_17">
            <path id="Vector_26" d="M594.3 182.594C594.3 182.594 590.9 182.294 590 182.094C589.1 181.894 588.6 180.794 587.9 181.394C587.3 181.994 584.9 185.694 583.2 186.294C581.4 186.894 576.2 187.794 576.1 190.694C576 193.594 592.9 191.594 594.6 192.094C596.2 192.494 594.3 182.594 594.3 182.594Z" fill="#4A4F80"/>
            </g>
            <g id="Group_18">
            <path id="Vector_27" d="M617.6 180.494C617.6 180.494 614.2 180.194 613.3 179.994C612.4 179.794 611.9 178.694 611.2 179.294C610.6 179.894 608.2 183.594 606.5 184.194C604.7 184.794 599.5 185.694 599.4 188.594C599.3 191.494 616.2 189.494 617.9 189.994C619.5 190.294 617.6 180.494 617.6 180.494Z" fill="#4A4F80"/>
            </g>
            <path id="Vector_28" d="M608.6 39.9943C608.6 39.9943 610.6 44.9943 609 48.8943C609 48.8943 616.2 48.3943 616.4 47.5943C616.7 46.7943 616.1 39.2943 617.1 36.9943C618.2 34.7943 608.6 39.9943 608.6 39.9943Z" fill="#EEA886"/>
            <path id="Vector_29" d="M607.9 47.1942C607.9 47.1942 603.7 48.6942 601.8 49.0942C599.9 49.4942 595.9 51.2942 596.2 58.2942C596.5 65.1942 597.7 71.2942 598.2 74.1942C598.6 77.1942 598.4 84.7942 597.7 88.4942C597.7 88.4942 607.8 90.9942 619.8 88.4942C619.8 88.4942 617.7 82.1942 617.7 80.5942C617.8 78.9942 624.7 65.5942 625.1 63.4942C625.4 61.3942 626.8 52.0942 623.6 49.9942C620.4 47.8942 617.8 48.1942 616.4 47.2942C615 46.1942 609.9 46.4942 607.9 47.1942Z" fill="#DBDFF0"/>
            <path id="Vector_30" d="M597.6 88.3942C597.6 88.3942 595.8 92.7942 595.6 93.8942C595.4 94.9942 589.7 109.394 589.3 113.594C588.9 117.894 587.7 129.194 587.2 130.794C586.8 132.394 588.2 139.694 588.4 141.294C588.6 142.894 588.5 169.494 586.6 182.594C586.6 182.594 593.5 184.394 597 182.394C597 182.394 600.4 162.094 600 150.294C599.7 138.494 599.1 133.894 601 129.094C602.8 124.294 612.6 109.694 613.7 108.094C614.8 106.594 621.6 98.1942 615.1 89.0942C608.7 80.0942 597.6 88.3942 597.6 88.3942Z" fill="#292C47"/>
            <path id="Vector_31" d="M619.8 127.194C619.2 130.994 619.8 135.994 621 149.894C622.2 163.794 620.3 180.594 620.3 180.594C616.2 181.994 610.1 180.594 610.1 180.594C610.2 179.594 610.1 146.794 610.1 143.794C610.1 140.894 609.3 137.594 609 134.194C608.9 131.894 607.8 127.694 606.6 123.394C606.2 122.094 605.9 120.794 605.5 119.594C605.3 118.894 605.1 118.194 604.9 117.494C603.2 111.594 600.9 88.9943 600.9 88.9943C600.9 88.9943 613.8 78.6943 619.6 88.3943C625.4 97.9943 622.6 104.894 622.4 106.094C622.2 107.294 620.4 123.394 619.8 127.194Z" fill="#292C47"/>
            <path id="Vector_32" d="M596.6 70.6942C596.6 70.6942 597.8 89.1942 593.8 99.0942C593.8 99.0942 605.8 102.894 623.1 98.3942C623.1 98.3942 621 85.5942 621.3 83.7942C621.6 81.8942 627.5 60.0942 625.5 54.9942C623.5 49.8942 598.6 54.5942 596.6 70.6942Z" fill="#DBDFF0"/>
            <path id="Vector_33" d="M612.6 20.1943C609.6 19.8943 601.8 20.4943 602.4 32.1943C603 43.9943 607.3 43.2943 611.6 41.9943C615.9 40.7943 621 31.5943 621 29.1943C620.9 26.7943 621.3 21.0943 612.6 20.1943Z" fill="#EEA886"/>
            <path id="Vector_34" d="M602.8 26.7944C602.8 26.7944 606.2 31.0944 609.6 32.1944C609.6 32.1944 612.2 36.8944 616.8 38.0944C616.8 38.0944 626.6 28.6944 618.4 21.6944C610.2 14.5944 602.8 23.1944 602.8 26.7944Z" fill="#FCCCA2"/>
            <path id="Vector_35" d="M609 30.5942C609.1 29.9942 610.5 28.5942 611.6 30.0942C612.7 31.5942 610.7 34.9942 609.9 34.9942C609.2 34.9942 608.6 32.9942 609 30.5942Z" fill="#EEA886"/>
            <path id="Vector_36" d="M614.6 106.794C614.5 106.994 608.2 120.894 606.6 123.294C606.2 121.994 605.9 120.694 605.5 119.494C605.5 119.494 614.4 107.094 614.6 106.794Z" fill="#1B1C2E"/>
            <path id="Vector_37" d="M619.8 23.7942C620 23.3942 627.5 20.0942 629 27.0942C630.5 34.0942 623 42.1942 621.7 45.6942C620.4 49.1942 622.3 57.3942 622.3 57.3942C622.3 57.3942 617.8 53.1942 616.4 48.8942C614.9 44.0942 614.4 31.9942 619.8 23.7942Z" fill="#FCCCA2"/>
            <path id="Vector_38" d="M620.2 23.5944C620.2 23.5944 617.9 25.3944 617.6 28.0944C617.6 28.0944 617.2 25.8944 618.1 24.5944C619 23.2944 620.2 23.5944 620.2 23.5944Z" fill="#E8734D"/>
            <path id="Vector_39" d="M553.5 70.9943C553.5 70.9943 552.1 71.6943 551.4 71.9943C550.7 72.2943 549.9 72.7943 550 73.4943C550.1 74.1943 549.8 75.8943 549.9 76.8943C549.9 77.8943 554.3 79.9943 555.2 79.8943C556.1 79.7943 558.6 76.2943 558.3 74.7943C558 73.1943 557.6 70.8943 557.6 70.8943L553.5 70.9943Z" fill="#EEA886"/>
            <path id="Vector_40" d="M606.1 50.0942C606.1 50.0942 602.7 46.2942 594.2 53.1942C588 58.2942 584.6 61.4942 583.4 61.9942C582.3 62.5942 578.1 64.8942 574.9 65.4942C571.7 66.0942 557.1 70.8942 557.1 70.8942L558 75.5942C558 75.5942 576.9 72.7942 579.2 71.8942C581.5 70.8942 596.3 63.3942 598.6 61.6942C600.4 60.4942 609.7 54.3942 606.1 50.0942Z" fill="#DBDFF0"/>
            <path id="Vector_41" d="M585.6 68.6943C585.6 68.6943 583.1 66.6943 582.2 62.6943C582.2 62.6943 576.9 65.3943 574.8 65.5943C572.7 65.7943 557 70.9943 557 70.9943L557.8 75.7943C557.8 75.7943 576.5 73.3943 579.2 71.9943C581.9 70.6943 585.6 68.6943 585.6 68.6943Z" fill="#EEA886"/>
            <path id="Vector_42" d="M596.7 71.9944C596.7 71.9944 594.8 72.0944 593.8 68.4944C593.7 68.1944 593.7 67.7944 593.6 67.3944C593.6 66.5944 593.6 65.5944 593.8 64.4944C594.5 59.7944 596.7 53.4944 596.7 53.4944C597.6 56.7944 598.2 59.4944 598.5 61.6944C598.6 62.2944 598.6 62.7944 598.7 63.3944C599.3 70.4944 596.7 71.9944 596.7 71.9944Z" fill="#DBDFF0"/>
            <path id="Vector_43" d="M601.9 59.2942C601.9 59.2942 600.5 61.2942 598.7 63.3942C597.1 65.1942 595.2 66.9942 593.6 67.3942C593.6 66.5942 593.6 65.5942 593.8 64.4942C593.8 64.4942 596.2 63.1942 598.5 61.6942C599.9 60.8942 601.1 59.9942 601.9 59.2942Z" fill="#9EA1AD"/>
            <g id="Group_19">
            <path id="Vector_44" d="M782.9 108.194C782.9 108.194 782.9 107.294 782.7 106.894C782.7 106.894 782.3 106.194 782.1 105.694C782 105.494 782 105.394 781.9 105.294C781.8 104.894 781.6 103.994 781 103.094C780.4 102.194 778.1 99.3943 778.1 99.3943L775.3 100.994L772.6 101.594C772.6 101.594 772.8 107.894 773.3 108.794C773.3 108.894 773.4 108.994 773.4 108.994C773.9 109.694 774.5 109.994 774.8 110.394C774.9 110.494 776 111.694 776.5 111.694C777.2 111.694 777.6 111.394 777.8 110.994C777.8 110.994 779.1 110.894 779.7 110.194C779.7 110.194 780.9 110.094 781.4 109.094C781.5 109.094 782.7 108.894 782.9 108.194Z" fill="#EFAA88"/>
            </g>
            <path id="Vector_45" d="M737.2 67.9944C737.2 67.9944 752.4 77.3944 758 82.8944C759.8 84.5944 771.4 102.294 772.1 102.994C772.8 103.594 779.7 100.694 779.7 100.694C779.7 100.694 765.8 78.3944 765 77.1944C764.1 75.8944 741.8 59.0944 739.2 58.3944C736.6 57.6944 736.4 58.9944 735.2 61.6944C733.6 65.3944 737.2 67.9944 737.2 67.9944Z" fill="#323657"/>
            <g id="Group_20">
            <g id="Group_21">
            <path id="Vector_46" d="M728.1 69.2943C728.1 69.2943 730.6 78.7942 739 78.5942C746.5 78.3942 757.8 80.9942 761.6 83.4942L766.4 86.7943L764.8 81.8942C764.8 81.8942 760.8 74.2942 739 77.5942C739 77.5942 732.4 79.5942 729 68.0942C728.9 68.0942 727.9 68.7943 728.1 69.2943Z" fill="#548AD1"/>
            </g>
            </g>
            </g>
            </g>
        </svg>