 
        <svg width="500" height="500" viewBox="0 0 500 500" fill="none" xmlns="http://www.w3.org/2000/svg">
            <style>
                #rotate , #caple , #lamb , #Group_198{
                    transform-box: fill-box;
                    transform-origin: center;
                }
                #lamb{
                    animation: rotation 4s linear infinite;
                }
                #caple{
                    animation: translateY 3s linear infinite ;
                }
                #rotate{
                    animation: spin 10s linear infinite;
                }
                #Group_198{
                    animation: animationFramesOne 10s linear infinite;
                }
                @keyframes translateY {

                    0%,
                    100% {
                        transform: translateY(2px);
                    }

                    50% {
                        transform: translateY(-2px);
                    }
                }
                @keyframes animationFramesOne {
                    0% {
                        transform: translate(0) rotate( 0deg);
                    }
                    
                    20% {
                        transform: translate(73px,-1px) rotate(36deg );
                    }
                    40% {
                        transform: translate(141px,72px) rotate( 72deg);
                    }
                    60% {
                        transform: translate(83px,122px) rotate(108deg );
                    }
                    80% {
                        transform: translate(-40px,72px) rotate(144deg );
                    }
                    100% {
                        transform: translate(0) rotate(  0deg);
                    }
                }
                @keyframes rotation {
                    0% {
                        transform: rotate(0deg);
                    }
                
                    50% {
                        transform: rotate(-10deg);
                    }
                
                    100% {
                        transform: rotate(0deg);
                    }
                }
                @keyframes spin {
                    0% {
                        -webkit-transform: rotate(0deg);
                        -ms-transform: rotate(0deg);
                        transform: rotate(0deg);
                    }
                
                    100% {
                        -webkit-transform: rotate(360deg);
                        -ms-transform: rotate(360deg);
                        transform: rotate(360deg);
                    }
                }
            </style>
            <g id="lamb_man 1">
            <g id="Group">
            <g id="caple">
            <g id="Group_2">
            <g id="Group_3">
            <g id="Group_4">
            <g id="Group_5">
            <path id="Vector" d="M342.4 260L342.7 262.9C342.7 262.7 350.1 262.5 350.1 262.5V259.6C350.1 259.6 342.4 259.8 342.4 260Z" fill="#FBE366"/>
            </g>
            </g>
            </g>
            <g id="Group_6">
            <g id="Group_7">
            <g id="Group_8">
            <path id="Vector_2" d="M331.1 262.3L332 265C332 265 332.4 264.9 333.1 264.7C333.8 264.5 334.6 264.2 335.5 264.1C337.3 263.7 339.1 263.4 339.1 263.4L338.6 260.5C338.6 260.5 336.7 260.9 334.8 261.3C333.8 261.5 332.9 261.8 332.2 262C331.6 262.1 331.1 262.3 331.1 262.3Z" fill="#FBE366"/>
            </g>
            </g>
            </g>
            <g id="Group_9">
            <g id="Group_10">
            <g id="Group_11">
            <path id="Vector_3" d="M320.7 267.3L322.4 269.7C322.3 269.5 328.7 266 328.8 266.2L327.6 263.6C327.4 263.4 320.5 267.1 320.7 267.3Z" fill="#FBE366"/>
            </g>
            </g>
            </g>
            <g id="Group_12">
            <g id="Group_13">
            <g id="Group_14">
            <path id="Vector_4" d="M312.4 275.4L314.7 277.2C314.7 277.2 315.7 275.7 317 274.4C318.2 273 319.6 271.9 319.6 271.9L317.7 269.7C317.7 269.7 316.2 270.9 314.9 272.4C313.5 273.8 312.4 275.4 312.4 275.4Z" fill="#FBE366"/>
            </g>
            </g>
            </g>
            <g id="Group_15">
            <g id="Group_16">
            <g id="Group_17">
            <path id="Vector_5" d="M306.6 285.4L309.2 286.6C309.2 286.6 310 284.9 310.8 283.3C311.2 282.5 311.7 281.7 312 281.1C312.4 280.5 312.6 280.1 312.6 280.1L310.2 278.5C310.2 278.5 309.9 278.9 309.5 279.5C309.2 280.1 308.7 281 308.2 281.8C307.4 283.7 306.6 285.4 306.6 285.4Z" fill="#FBE366"/>
            </g>
            </g>
            </g>
            <g id="Group_18">
            <g id="Group_19">
            <g id="Group_20">
            <path id="Vector_6" d="M302.6 295.5L305 297.4C305 297.4 305.7 295.6 306.4 293.7C307.1 291.9 307.8 290.1 307.8 290.1L305.2 288.8C305.2 288.8 304.5 290.5 303.9 292.2C303.2 293.8 302.6 295.5 302.6 295.5Z" fill="#FBE366"/>
            </g>
            </g>
            </g>
            <g id="Group_21">
            <g id="Group_22">
            <g id="Group_23">
            <path id="Vector_7" d="M298.6 305.6L300.6 308.1C300.6 308.1 301.4 306.4 302.1 304.6C302.9 302.8 303.5 301 303.5 301L301.2 298.9C301.2 298.9 300.6 300.6 299.9 302.3C299.4 303.9 298.6 305.6 298.6 305.6Z" fill="#FBE366"/>
            </g>
            </g>
            </g>
            </g>
            <g id="Group_24">
            <g id="Group_25">
            <g id="Group_26">
            <g id="Group_27">
            <path id="Vector_8" d="M293.2 314.8L294.7 317.8C294.7 317.8 295 317.5 295.5 316.9C295.9 316.3 296.5 315.5 297.1 314.8C297.6 314 298.1 313.2 298.5 312.5C298.9 311.9 299.1 311.5 299.1 311.5L297.3 308.8C297.3 308.8 296.4 310.4 295.5 311.9C295 312.6 294.5 313.4 294.1 313.9C293.5 314.5 293.2 314.8 293.2 314.8Z" fill="#FBE366"/>
            </g>
            </g>
            </g>
            <g id="Group_28">
            <g id="Group_29">
            <g id="Group_30">
            <path id="Vector_9" d="M284.7 321.4L285.6 324.8C285.6 324.8 286 324.6 286.7 324.3C287.3 324 288.2 323.6 289 323C290.7 322 292.1 320.7 292.1 320.7L290.8 317.5C290.8 317.5 289.5 318.8 287.9 319.7C287.2 320.3 286.4 320.6 285.8 320.9C285.1 321.2 284.7 321.4 284.7 321.4Z" fill="#FBE366"/>
            </g>
            </g>
            </g>
            <g id="Group_31">
            <g id="Group_32">
            <g id="Group_33">
            <path id="Vector_10" d="M274.3 323.8L274.4 327.3C274.4 327.3 276.3 327.1 278.2 326.9C279.1 326.7 280.1 326.5 280.8 326.3C281.5 326.2 282 326 282 326L281.4 322.6C281.4 322.6 281 322.7 280.3 322.9C279.6 323 278.7 323.2 277.9 323.4C276.1 323.6 274.3 323.8 274.3 323.8Z" fill="#FBE366"/>
            </g>
            </g>
            </g>
            <g id="Group_34">
            <g id="Group_35">
            <g id="Group_36">
            <path id="Vector_11" d="M263.5 323.2L262.9 326.7C262.9 326.7 263.4 326.8 264.1 326.9C264.8 327 265.8 327 266.7 327.1C267.7 327.2 268.6 327.3 269.3 327.3C270 327.3 270.5 327.3 270.5 327.3L270.6 323.8C270.6 323.8 270.1 323.8 269.5 323.8C268.8 323.7 267.9 323.7 267 323.6C266.1 323.5 265.2 323.4 264.5 323.4C264 323.3 263.5 323.2 263.5 323.2Z" fill="#FBE366"/>
            </g>
            </g>
            </g>
            <g id="Group_37">
            <g id="Group_38">
            <g id="Group_39">
            <path id="Vector_12" d="M253.8 318.8L252.5 322C252.4 322.1 254.1 323.1 255.7 324.1C256.5 324.7 257.5 324.9 258.1 325.2C258.8 325.5 259.2 325.7 259.2 325.7L260 322.3C260 322.3 259.6 322.1 259 321.9C258.4 321.6 257.5 321.4 256.8 320.8C255.3 319.8 253.8 318.8 253.8 318.8Z" fill="#FBE366"/>
            </g>
            </g>
            </g>
            <g id="Group_40">
            <g id="Group_41">
            <g id="Group_42">
            <path id="Vector_13" d="M246.8 310.6L245 313.4C245 313.4 246.1 315 247.2 316.6C248.5 318.1 249.7 319.5 249.7 319.5L251.2 316.4C251.2 316.4 250 315 248.9 313.6C247.9 312.1 246.8 310.6 246.8 310.6Z" fill="#FBE366"/>
            </g>
            </g>
            </g>
            <g id="Group_43">
            <g id="Group_44">
            <g id="Group_45">
            <path id="Vector_14" d="M242.1 300.9L239.8 303.1C239.8 303.1 240.6 304.9 241.4 306.6C242.2 308.4 243.1 310 243.1 310L245.1 307.4C245.1 307.4 244.2 305.8 243.5 304.1C242.8 302.6 242.1 300.9 242.1 300.9Z" fill="#FBE366"/>
            </g>
            </g>
            </g>
            </g>
            <g id="Group_46">
            <g id="Group_47">
            <g id="Group_48">
            <g id="Group_49">
            <path id="Vector_15" d="M238.6 290.7L236 292.2C236 292.2 236.5 294.1 237.2 295.9C237.8 297.8 238.4 299.6 238.4 299.6L240.8 297.6C240.8 297.6 240.2 295.9 239.7 294.2C239.1 292.4 238.6 290.7 238.6 290.7Z" fill="#FBE366"/>
            </g>
            </g>
            </g>
            <g id="Group_50">
            <g id="Group_51">
            <g id="Group_52">
            <path id="Vector_16" d="M236 280.2L233.2 280.9C233.2 280.9 233.6 282.8 234.1 284.7C234.5 286.6 235 288.5 235 288.5L237.7 287.3C237.7 287.3 237.2 285.6 236.8 283.8C236.4 282 236 280.2 236 280.2Z" fill="#FBE366"/>
            </g>
            </g>
            </g>
            <g id="Group_53">
            <g id="Group_54">
            <g id="Group_55">
            <path id="Vector_17" d="M233.8 269.3L230.9 269.8L232.4 277.3L235.2 276.7L233.8 269.3Z" fill="#FBE366"/>
            </g>
            </g>
            </g>
            <g id="Group_56">
            <g id="Group_57">
            <g id="Group_58">
            <path id="Vector_18" d="M231.9 258.3L229 258.7L230.3 266.2L233.1 265.7L231.9 258.3Z" fill="#FBE366"/>
            </g>
            </g>
            </g>
            <g id="Group_59">
            <g id="Group_60">
            <g id="Group_61">
            <path id="Vector_19" d="M230.1 247.2L227.2 247.6L228.4 255.1L231.3 254.6L230.1 247.2Z" fill="#FBE366"/>
            </g>
            </g>
            </g>
            <g id="Group_62">
            <g id="Group_63">
            <g id="Group_64">
            <path id="Vector_20" d="M228.3 236.1L225.5 236.6L226.7 244L229.5 243.5L228.3 236.1Z" fill="#FBE366"/>
            </g>
            </g>
            </g>
            <g id="Group_65">
            <g id="Group_66">
            <g id="Group_67">
            <path id="Vector_21" d="M226.5 225L223.6 225.5L224.9 232.9L227.7 232.4L226.5 225Z" fill="#FBE366"/>
            </g>
            </g>
            </g>
            </g>
            <g id="Group_68">
            <g id="Group_69">
            <g id="Group_70">
            <g id="Group_71">
            <path id="Vector_22" d="M224.4 213.9L221.6 214.5C221.6 214.5 222 216.3 222.3 218.2C222.6 220 223 221.9 223 221.9L225.9 221.4C225.9 221.4 225.6 219.5 225.2 217.7C224.8 215.8 224.4 213.9 224.4 213.9Z" fill="#FBE366"/>
            </g>
            </g>
            </g>
            <g id="Group_72">
            <g id="Group_73">
            <g id="Group_74">
            <path id="Vector_23" d="M221.8 202.9L219 203.7C219 203.7 219.5 205.5 219.9 207.3C220.3 209.1 220.7 210.9 220.7 210.9L223.5 210.3C223.5 210.3 223.1 208.4 222.6 206.6C222.3 204.8 221.8 202.9 221.8 202.9Z" fill="#FBE366"/>
            </g>
            </g>
            </g>
            <g id="Group_75">
            <g id="Group_76">
            <g id="Group_77">
            <path id="Vector_24" d="M218.4 192.1L215.7 193.1C215.7 193.1 216.4 194.8 216.9 196.6C217.4 198.4 218 200.2 218 200.2L220.8 199.4C220.8 199.4 220.2 197.6 219.7 195.8C219.1 193.9 218.4 192.1 218.4 192.1Z" fill="#FBE366"/>
            </g>
            </g>
            </g>
            <g id="Group_78">
            <g id="Group_79">
            <g id="Group_80">
            <path id="Vector_25" d="M213.6 181.6L211.1 183.2C211.1 183.2 212 184.8 212.8 186.4C213.6 188 214.3 189.7 214.3 189.8L217 188.7C217 188.7 216.3 186.9 215.4 185.2C214.5 183.3 213.6 181.6 213.6 181.6Z" fill="#FBE366"/>
            </g>
            </g>
            </g>
            <g id="Group_81">
            <g id="Group_82">
            <g id="Group_83">
            <path id="Vector_26" d="M206.1 172.8L204.2 175C204.2 175 204.5 175.3 205.1 175.7C205.6 176.2 206.4 176.7 206.9 177.4C207.5 178.1 208.1 178.8 208.5 179.3C209 179.8 209.2 180.2 209.2 180.2L211.5 178.4C211.5 178.4 211.3 178 210.8 177.4C210.3 176.8 209.7 176.1 209 175.4C208.4 174.6 207.6 174.1 207 173.6C206.4 173.1 206.1 172.8 206.1 172.8Z" fill="#FBE366"/>
            </g>
            </g>
            </g>
            <g id="Group_84">
            <g id="Group_85">
            <g id="Group_86">
            <path id="Vector_27" d="M196.3 166.5L195 169.1C195 169.1 195.4 169.3 196 169.6C196.6 170 197.4 170.4 198.2 170.9C199.8 171.8 201.3 172.9 201.3 172.9L203 170.5C203 170.5 201.4 169.3 199.7 168.4C198.9 167.9 198 167.4 197.4 167.1C196.8 166.7 196.3 166.5 196.3 166.5Z" fill="#FBE366"/>
            </g>
            </g>
            </g>
            <g id="Group_87">
            <g id="Group_88">
            <g id="Group_89">
            <path id="Vector_28" d="M185.5 162.4L184.8 165.2C184.8 165.2 186.5 165.7 188.3 166.2C190 166.9 191.7 167.5 191.7 167.5L192.9 164.9C192.9 164.9 191.1 164.2 189.3 163.5C187.4 162.9 185.5 162.4 185.5 162.4Z" fill="#FBE366"/>
            </g>
            </g>
            </g>
            </g>
            <g id="Group_90">
            <g id="Group_91">
            <g id="Group_92">
            <g id="Group_93">
            <path id="Vector_29" d="M173.8 161.8L174.2 164.7C174.2 164.7 174.6 164.6 175.3 164.5C176 164.4 176.9 164.4 177.7 164.4C179.5 164.4 181.3 164.6 181.3 164.6L181.7 161.7C181.7 161.7 179.7 161.5 177.7 161.5C176.7 161.5 175.7 161.6 175 161.6C174.3 161.7 173.8 161.8 173.8 161.8Z" fill="#FBE366"/>
            </g>
            </g>
            </g>
            <g id="Group_94">
            <g id="Group_95">
            <g id="Group_96">
            <path id="Vector_30" d="M162.9 166.1L164.5 168.5C164.5 168.5 164.9 168.2 165.4 167.9C166 167.6 166.8 167.2 167.6 166.7C168.4 166.3 169.2 166 169.9 165.8C170.5 165.5 171 165.5 171 165.5L170.2 162.7C170.2 162.7 169.7 162.8 169 163.1C168.3 163.4 167.4 163.7 166.5 164.1C165.6 164.6 164.7 165 164.1 165.4C163.3 165.8 162.9 166.1 162.9 166.1Z" fill="#FBE366"/>
            </g>
            </g>
            </g>
            <g id="Group_97">
            <g id="Group_98">
            <g id="Group_99">
            <path id="Vector_31" d="M154.4 174.1L156.7 175.9C156.7 175.9 157 175.5 157.4 175C157.9 174.5 158.4 173.8 159 173.1C160.3 171.8 161.6 170.6 161.6 170.6L159.7 168.4C159.7 168.4 158.2 169.7 156.9 171.1C156.3 171.8 155.6 172.6 155.1 173.1C154.7 173.7 154.4 174.1 154.4 174.1Z" fill="#FBE366"/>
            </g>
            </g>
            </g>
            <g id="Group_100">
            <g id="Group_101">
            <g id="Group_102">
            <path id="Vector_32" d="M148.5 184L151.1 185.2C151 185.1 154.5 178.7 154.6 178.8L152.2 177.2C152.2 177.2 151.2 178.8 150.2 180.5C149.4 182.3 148.5 184 148.5 184Z" fill="#FBE366"/>
            </g>
            </g>
            </g>
            <g id="Group_103">
            <g id="Group_104">
            <g id="Group_105">
            <path id="Vector_33" d="M144.6 194.8L147.4 195.6C147.4 195.6 147.9 193.8 148.5 192.1C149.1 190.3 149.8 188.6 149.8 188.6L147.1 187.5C147.1 187.5 146.4 189.3 145.8 191.1C145.1 192.9 144.6 194.8 144.6 194.8Z" fill="#FBE366"/>
            </g>
            </g>
            </g>
            <g id="Group_106">
            <g id="Group_107">
            <g id="Group_108">
            <path id="Vector_34" d="M142.6 206.1L145.5 206.3C145.5 206.3 145.6 204.5 145.9 202.7C146.2 200.9 146.6 199.1 146.6 199.1L143.8 198.5C143.8 198.5 143.4 200.4 143.1 202.3C142.7 204.2 142.6 206.1 142.6 206.1Z" fill="#FBE366"/>
            </g>
            </g>
            </g>
            <g id="Group_109">
            <g id="Group_110">
            <g id="Group_111">
            <path id="Vector_35" d="M143.2 217.6L146.1 217.3L145.6 212.3C145.5 211.5 145.5 210.7 145.4 209.9L142.5 210C142.5 210.9 142.6 211.8 142.7 212.6L143.2 217.6Z" fill="#FBE366"/>
            </g>
            </g>
            </g>
            </g>
            <g id="Group_112">
            <g id="Group_113">
            <g id="Group_114">
            <g id="Group_115">
            <path id="Vector_36" d="M144.1 228.7L147 228.5L146.4 220.9L143.6 221.2L144.1 228.7Z" fill="#FBE366"/>
            </g>
            </g>
            </g>
            <g id="Group_116">
            <g id="Group_117">
            <g id="Group_118">
            <path id="Vector_37" d="M144.7 239.8L147.6 239.7C147.6 239.7 147.5 237.8 147.5 235.9C147.4 234 147.3 232.1 147.3 232.1L144.4 232.3C144.4 232.3 144.5 234.2 144.6 236C144.6 238 144.7 239.8 144.7 239.8Z" fill="#FBE366"/>
            </g>
            </g>
            </g>
            <g id="Group_119">
            <g id="Group_120">
            <g id="Group_121">
            <path id="Vector_38" d="M144.8 251H147.7C147.7 251 147.7 249.1 147.7 247.2C147.7 245.3 147.7 243.4 147.7 243.4H144.8C144.8 243.4 144.8 245.3 144.8 247.1C144.8 249.1 144.8 251 144.8 251Z" fill="#FBE366"/>
            </g>
            </g>
            </g>
            <g id="Group_122">
            <g id="Group_123">
            <g id="Group_124">
            <path id="Vector_39" d="M144.3 262.1L147.2 262.3C147.2 262.3 147.3 260.4 147.4 258.5C147.5 256.6 147.6 254.7 147.6 254.7L144.7 254.6C144.7 254.6 144.7 256.5 144.5 258.3C144.4 260.3 144.3 262.1 144.3 262.1Z" fill="#FBE366"/>
            </g>
            </g>
            </g>
            <g id="Group_125">
            <g id="Group_126">
            <g id="Group_127">
            <path id="Vector_40" d="M143 273.2L145.9 273.6C145.9 273.6 146.2 271.7 146.4 269.8C146.7 267.9 146.8 266 146.8 266L143.9 265.7C143.9 265.7 143.7 267.6 143.5 269.4C143.3 271.3 143 273.2 143 273.2Z" fill="#FBE366"/>
            </g>
            </g>
            </g>
            <g id="Group_128">
            <g id="Group_129">
            <g id="Group_130">
            <path id="Vector_41" d="M140.8 284L143.6 284.7C143.6 284.7 144.1 282.9 144.5 281C144.9 279.1 145.3 277.3 145.3 277.3L142.5 276.8C142.5 276.8 142.2 278.6 141.8 280.4C141.3 282.2 140.8 284 140.8 284Z" fill="#FBE366"/>
            </g>
            </g>
            </g>
            <g id="Group_131">
            <g id="Group_132">
            <g id="Group_133">
            <path id="Vector_42" d="M137.3 294.5L140 295.6C140 295.6 140.8 293.9 141.4 292C142 290.2 142.6 288.4 142.6 288.4L139.8 287.6C139.8 287.6 139.2 289.4 138.6 291.1C138.1 292.8 137.3 294.5 137.3 294.5Z" fill="#FBE366"/>
            </g>
            </g>
            </g>
            </g>
            <g id="Group_134">
            <g id="Group_135">
            <g id="Group_136">
            <g id="Group_137">
            <path id="Vector_43" d="M132.2 304L134.5 305.7C134.5 305.7 135.6 304.1 136.6 302.4C137.5 300.7 138.4 299 138.4 299L135.8 297.7C135.8 297.7 134.9 299.3 134.1 300.9C133.2 302.5 132.2 304 132.2 304Z" fill="#FBE366"/>
            </g>
            </g>
            </g>
            <g id="Group_138">
            <g id="Group_139">
            <g id="Group_140">
            <path id="Vector_44" d="M124.9 311.9L126.6 314.2C126.8 314.4 132.3 308.9 132.2 308.7L130 306.8C130.2 306.9 125 312.1 124.9 311.9Z" fill="#FBE366"/>
            </g>
            </g>
            </g>
            <g id="Group_141">
            <g id="Group_142">
            <g id="Group_143">
            <path id="Vector_45" d="M115.4 316.9L116.4 319.6C116.4 319.6 116.9 319.4 117.6 319.2C118.3 318.9 119.2 318.7 120.1 318.2C121.8 317.3 123.6 316.4 123.6 316.4L122.1 313.9C122.1 313.9 120.5 314.7 118.9 315.6C118.1 316.1 117.2 316.3 116.6 316.5C115.8 316.8 115.4 316.9 115.4 316.9Z" fill="#FBE366"/>
            </g>
            </g>
            </g>
            <g id="Group_144">
            <g id="Group_145">
            <g id="Group_146">
            <path id="Vector_46" d="M104.8 318.8L105 321.7C105 321.7 106.9 321.6 108.9 321.4C110.8 321.1 112.7 320.7 112.7 320.7L111.9 317.9C111.9 317.9 110.1 318.3 108.3 318.6C106.7 318.7 104.8 318.8 104.8 318.8Z" fill="#FBE366"/>
            </g>
            </g>
            </g>
            <g id="Group_147">
            <g id="Group_148">
            <g id="Group_149">
            <path id="Vector_47" d="M94.0001 318.1L93.5001 321C93.5001 321 95.4001 321.3 97.3001 321.6C99.2001 321.8 101.2 321.8 101.2 321.8L101.3 318.9C101.3 318.9 99.5001 318.9 97.7001 318.7C95.8001 318.3 94.0001 318.1 94.0001 318.1Z" fill="#FBE366"/>
            </g>
            </g>
            </g>
            <g id="Group_150">
            <g id="Group_151">
            <g id="Group_152">
            <path id="Vector_48" d="M83.3 315.5L82.4 318.3C82.3 318.5 89.8 320.3 89.8 320.3L90.4 317.5C90.5 317.4 83.3 315.6 83.3 315.5Z" fill="#FBE366"/>
            </g>
            </g>
            </g>
            <g id="Group_153">
            <g id="Group_154">
            <g id="Group_155">
            <path id="Vector_49" d="M72.9 311.6L71.8 314.3C71.8 314.3 73.6 315 75.3 315.8C76.2 316.2 77.1 316.5 77.8 316.7C78.5 316.9 78.9 317.1 78.9 317.1L79.9 314.4C79.9 314.4 79.5 314.3 78.8 314C78.1 313.8 77.3 313.5 76.4 313.1C74.7 312.3 72.9 311.6 72.9 311.6Z" fill="#FBE366"/>
            </g>
            </g>
            </g>
            </g>
            </g>
            <g id="rotate">
            <g id="Group_156">
            <g id="Group_157">
            <path id="Vector_50" d="M356.9 321.8C356.4 333.1 346.9 341.8 335.7 341.3C324.4 340.8 315.7 331.3 316.2 320C316.7 308.8 326.2 300 337.5 300.5C348.7 301 357.4 310.5 356.9 321.8Z" fill="#CBE9F4"/>
            </g>
            </g>
            <g id="Group_158">
            <path id="Vector_51" d="M407.4 309.6C401 303.9 397.6 294.2 398.9 285.9C399.7 280.7 414.2 271.8 414.2 271.8L392.6 248.3C392.6 248.3 382.5 262 377.3 262.4C369.4 263 360.4 258.9 355.6 252.3C352.5 248.1 356.5 231.5 356.5 231.5L324.6 230.1C324.6 230.1 327.1 247 323.7 250.9C319 256.3 310.6 259.1 303.7 257.7C298.6 256.7 290.3 241.8 290.3 241.8L265.8 262.3C265.8 262.3 279 273 279.2 278.2C279.4 286.9 274.8 296.5 267.5 301.8C263.3 304.8 246.7 300.6 246.7 300.6L244.9 332.5C244.9 332.5 261.8 330.2 265.6 333.6C272 339.3 275.4 349.1 274.2 357.3C273.4 362.4 258.9 371.4 258.9 371.4L280.5 394.9C280.5 394.9 290.6 381.2 295.8 380.8C303.7 380.2 312.7 384.3 317.5 390.9C320.6 395.1 316.6 411.7 316.6 411.7L348.5 413.1C348.5 413.1 346 396.2 349.4 392.3C354.1 386.9 362.5 384.1 369.4 385.5C374.5 386.5 382.8 401.4 382.8 401.4L407.3 380.9C407.3 380.9 394.1 370.2 393.9 365C393.7 356.3 398.3 346.7 405.6 341.5C409.8 338.5 426.4 342.7 426.4 342.7L428.2 310.8C428.2 310.7 411.3 313 407.4 309.6ZM334.3 373.7C305.1 372.4 282.5 347.8 283.7 318.6C285 289.4 309.6 266.8 338.8 268C368 269.3 390.7 294 389.4 323.1C388.1 352.4 363.5 375 334.3 373.7Z" fill="#CBE9F4"/>
            </g>
            <g id="Group_159">
            <g id="Group_160">
            <path id="Vector_52" d="M376.9 323.4C375.9 345.7 357.1 363 334.8 362C312.5 361 295.2 342.2 296.2 319.9C297.2 297.6 316 280.3 338.3 281.2C360.6 282.2 377.9 301 376.9 323.4Z" fill="#CBE9F4"/>
            </g>
            </g>
            </g>
            <g id="Group_161">
            <g id="Group_162">
            <path id="Vector_53" d="M276.7 177.9C277 175.4 275.5 168 268.7 165.9C259.6 163.1 240.4 166.8 231.5 157.1C222.5 147.3 225.3 138.9 226.3 132.9C227.4 127 230.6 125.1 230.8 121.6C231 118.1 226.8 118 222.8 127.1C220.9 131.5 208.9 151.8 217.4 165.4C228.5 183.1 274.6 192.7 276.7 177.9Z" fill="#FBC6B4"/>
            </g>
            <g id="Group_163">
            <path id="Vector_54" d="M278.5 173.3C278.5 173.3 279.1 183.8 263.5 185.1C248 186.4 241 184.8 241 184.8C241 184.8 237.2 175.3 241.8 160C241.8 160 279.8 158.4 278.5 173.3Z" fill="#EDA503"/>
            </g>
            </g>
            <g id="Group_164">
            <path id="Vector_55" d="M303.9 165.9C298.6 163 291.9 162.4 286.8 161.8C275.5 160.6 256.9 162.2 253.4 182.1C252.2 188.6 251.9 198.2 252.5 208C252.6 210.1 252.7 212.3 253 214.4C253.9 223.9 251 230.4 254.4 235.2C264.3 249.4 321.6 261.3 312.4 243.7C312.2 243.3 310.2 237.5 314.3 235.7C311.4 227.6 311.7 217.8 310.4 211.1C310 209.1 309.7 207.1 309.6 204.9C309.2 200.1 309.6 194.9 311 189C314 175.9 310 169.4 303.9 165.9Z" fill="#FFB502"/>
            </g>
            <g id="Group_165">
            <g id="Group_166">
            <g id="Group_167">
            <path id="Vector_56" d="M231.5 301.4C242.5 313.1 260.5 326.1 266.6 335.1C267.6 336.5 267.7 337.2 263.7 341.3C259.6 345.4 265.9 345.6 274.1 340.9C282.4 336.2 255.6 298.7 241.1 282.3C228.5 267.9 218.6 287.9 231.5 301.4Z" fill="#FBC6B4"/>
            </g>
            </g>
            <g id="Group_168">
            <path id="Vector_57" d="M275.5 335C275.5 335 269.9 342.1 263.7 341.3C263.7 341.3 256.1 346.9 262.5 346.4C268.8 345.8 279.8 342.3 275.5 335Z" fill="#FFB502"/>
            </g>
            </g>
            <g id="Group_169">
            <path id="Vector_58" d="M296 179.8C294 189.7 289.1 204.9 311.8 216.9C311.8 216.9 272.6 264.3 249.1 240C249.1 240 252.2 197.2 257.9 180C259.5 175.1 263.5 161.5 274.2 162.1C274.2 162.1 258.2 186.4 265.4 192.5C272.6 198.6 279 193.1 281.9 188.2C286.6 180.4 296.9 163.4 296.9 163.4L303.2 165.6C303.1 165.5 297.7 171.4 296 179.8Z" fill="#1C2745"/>
            </g>
            <g id="Group_170">
            <g id="Group_171">
            <path id="Vector_59" d="M295.6 147.7C295.6 147.7 289.2 154.7 293.6 160.8C298.1 167.1 271.4 172.1 273.4 167.5C276 161.6 280.3 158.9 279.5 150.9L295.6 147.7Z" fill="#F7B2A0"/>
            </g>
            <g id="Group_172">
            <path id="Vector_60" d="M287.5 128.2C280.7 131.5 268.3 151.5 272.3 158C274.1 160.8 284.7 161.6 293.9 153.9C297.7 150.8 303.2 144.4 301.5 135.8C300.7 131.9 295.4 124.3 287.5 128.2Z" fill="#FBC6B4"/>
            </g>
            <g id="Group_173">
            <path id="Vector_61" d="M281.3 129.1C279.3 131.5 279.4 132.2 287.3 136C295.1 139.8 296.7 139.7 295.2 141.4C291 146.4 297.2 147.1 292 153C286.9 158.9 295.1 156.9 299.8 152.2C300.7 151.3 305.9 146.8 304.6 137.1C303.1 125.7 288.7 120.5 281.3 129.1Z" fill="#1D1B3A"/>
            </g>
            </g>
            <g id="Group_174">
            <path id="Vector_62" d="M290.1 143.8C290.1 143.8 271.2 134.8 273.8 127.1C275.4 122.3 289.9 126.9 289.9 126.9L290.1 143.8Z" fill="#EDA503"/>
            </g>
            <g id="Group_175">
            <path id="Vector_63" d="M280.3 130.2C281 138.2 285.9 142.8 302 150.2C302 150.2 313.1 136.5 303.6 126.6C295.2 117.8 279.8 125 280.3 130.2Z" fill="#FFB502"/>
            </g>
            <g id="Group_176">
            <path id="Vector_64" d="M254.7 230.6C254.7 230.6 208.3 246.2 200.5 259.7C192.7 273.2 261 334.8 261 334.8C261 334.8 271.9 327.6 269.4 318.5C260 284.4 256.3 273.3 256.3 273.3L301.3 249.1L254.7 230.6Z" fill="#1C2745"/>
            </g>
            <g id="Group_177">
            <g id="Group_178">
            <g id="Group_179">
            <path id="Vector_65" d="M275.6 327.1C277.3 343.1 283.7 364.4 283.1 375.2C283 376.9 282.7 377.5 277 378.4C271.3 379.2 276.1 383.2 285.5 384.4C294.9 385.6 296.4 339.7 294.8 317.8C293.5 298.6 273.6 308.5 275.6 327.1Z" fill="#FBC6B4"/>
            </g>
            </g>
            <g id="Group_180">
            <path id="Vector_66" d="M290.2 380.4C290.2 380.4 281.4 382.7 277 378.3C277 378.3 267.6 378.2 273 381.6C278.4 385 289.2 388.8 290.2 380.4Z" fill="#FFB502"/>
            </g>
            </g>
            <g id="Group_181">
            <path id="Vector_67" d="M311.7 216.9C311.7 216.9 316.7 236.1 316.9 262.3C317.1 293.8 296.2 367 296.2 367C296.2 367 297 369.6 279 363.6C274.1 362 271.7 256.1 271.7 256.1L283.6 229L311.7 216.9Z" fill="#1C2745"/>
            </g>
            <g id="Group_182">
            <path id="Vector_68" d="M290 366.9L289 366.5C307.3 316.3 303.2 231.6 303.2 230.8L304.3 230.7C304.3 231.6 308.4 316.5 290 366.9Z" fill="white"/>
            </g>
            <g id="Group_183">
            <g id="Group_184">
            <path id="Vector_69" d="M317.5 418.7L248.4 248.4H208.5L276.9 417.1L273 418.7L202.2 244.2H251.2L321.4 417.1L317.5 418.7Z" fill="#464F72"/>
            </g>
            <g id="Group_185">
            <path id="Vector_70" d="M280.6 320.1H236.1V324.3H280.6V320.1Z" fill="#464F72"/>
            </g>
            <g id="Group_186">
            <path id="Vector_71" d="M289.5 340.9H245V345.1H289.5V340.9Z" fill="#464F72"/>
            </g>
            <g id="Group_187">
            <path id="Vector_72" d="M297.2 361.9H252.7V366.1H297.2V361.9Z" fill="#464F72"/>
            </g>
            <g id="Group_188">
            <path id="Vector_73" d="M306.9 383.4H262.4V387.6H306.9V383.4Z" fill="#464F72"/>
            </g>
            <g id="Group_189">
            <path id="Vector_74" d="M227.108 295.732L223.176 294.257L177.072 417.086L181.004 418.562L227.108 295.732Z" fill="#464F72"/>
            </g>
            <g id="Group_190">
            <path id="Vector_75" d="M273.236 298.935L269.304 297.458L223.187 420.288L227.119 421.764L273.236 298.935Z" fill="#464F72"/>
            </g>
            </g>
            <g id="lamb">
            <g id="Group_191">
            <path id="Vector_76" d="M240.6 147.3C240.6 155.2 234.2 161.7 226.2 161.7C218.3 161.7 211.8 155.3 211.8 147.3C211.8 139.4 218.2 132.9 226.2 132.9C234.2 132.9 240.6 139.3 240.6 147.3Z" fill="#FFCF03"/>
            </g>
            <g id="Group_192">
            <path id="Vector_77" d="M228.9 78.2H223.5V116.7H228.9V78.2Z" fill="#464F72"/>
            </g>
            <g id="Group_193">
            <path id="Vector_78" d="M232.9 107.8H219.6V125.6H232.9V107.8Z" fill="#6D76A1"/>
            </g>
            <g id="Group_194">
            <path id="Vector_79" d="M226.3 116.2C207.9 116.2 193 131.1 193 149.5H259.7C259.6 131.1 244.7 116.2 226.3 116.2Z" fill="#C1E4FA"/>
            </g>
            </g>
            <g id="Group_195">
            <g id="Group_196">
            <path id="Vector_80" d="M310.7 174.9C310.2 172.5 307 167.9 300.2 168.2C291.1 168.6 275.1 178.2 263.9 172.4C252.7 166.6 252.4 158.1 251.4 152.4C250.4 146.7 252.7 144 251.8 140.8C250.9 137.5 247.1 138.8 246.4 148.3C246.1 152.8 241.9 175 254 184.4C269.8 196.7 313.6 188.8 310.7 174.9Z" fill="#FBC6B4"/>
            </g>
            <g id="Group_197">
            <path id="Vector_81" d="M310.8 172.6C310.8 172.6 314.7 181.8 301.2 188C287.7 194.2 280.9 195.1 280.9 195.1C280.9 195.1 274.4 187.8 273.6 172.6C273.6 172.6 307.1 158.8 310.8 172.6Z" fill="#EDA503"/>
            </g>
            </g>
            <g id="Group_198">
            <g id="Group_199">
            <path id="Vector_82" d="M181.8 216.2C176.9 216.2 172.9 212.2 172.9 207.3C172.9 202.4 176.9 198.4 181.8 198.4C186.7 198.4 190.7 202.4 190.7 207.3C190.7 212.2 186.7 216.2 181.8 216.2ZM181.8 202.4C179.1 202.4 176.9 204.6 176.9 207.3C176.9 210 179.1 212.2 181.8 212.2C184.5 212.2 186.7 210 186.7 207.3C186.7 204.6 184.5 202.4 181.8 202.4Z" fill="#64B4D7"/>
            </g>
            </g>
            <g id="Group_200">
            <g id="Group_201">
            <g id="Group_202">
            <path id="Vector_83" d="M163.5 356.4H127.1V359.2H163.5V356.4Z" fill="#27355C"/>
            </g>
            </g>
            </g>
            <g id="Group_203">
            <g id="Group_204">
            <g id="Group_205">
            <path id="Vector_84" d="M161.3 347.2H141.3V350H161.3V347.2Z" fill="#27355C"/>
            </g>
            </g>
            </g>
            </g>
            </g>
        </svg>